<svg xmlns="http://www.w3.org/2000/svg" width="560" height="225" viewBox="0 0 560 225" version="1.1">
	<path d="M 46.315 33.967 C 42.805 35.445, 42 38.246, 42 48.980 C 42 58.382, 42.172 59.263, 44.455 61.545 C 46.807 63.898, 47.445 64, 59.820 64 C 71.367 64, 73.009 63.781, 75.365 61.927 C 77.921 59.917, 78 59.533, 78 49.038 C 78 33.576, 77.991 33.567, 61.341 33.274 C 54.278 33.149, 47.517 33.461, 46.315 33.967 M 95.500 34.155 C 90.866 36.689, 91 34.404, 91 111.056 C 91 198.094, 89.192 189, 106.500 189 C 123.684 189, 122 196.078, 122 123.865 L 122 64 144.045 64 L 166.091 64 168.545 61.545 C 170.839 59.252, 170.998 58.414, 170.968 48.795 C 170.935 38.102, 170.369 36.322, 166.316 34.163 C 163.356 32.587, 98.381 32.579, 95.500 34.155 M 247.477 33.988 C 224.662 37.342, 206.568 52.586, 202.022 72.282 C 200.385 79.376, 200.757 82.423, 203.583 85.076 C 205.972 87.318, 206.941 87.500, 216.479 87.500 C 228.390 87.500, 230.101 86.626, 231.860 79.640 C 234.643 68.589, 242.071 64.083, 257.593 64.031 C 267.718 63.997, 273.500 66.110, 277.335 71.247 C 279.826 74.584, 280.737 83.806, 278.992 88.019 C 277.185 92.381, 265.120 103.258, 251.916 112.428 C 225.402 130.841, 213.210 142.265, 206.986 154.527 C 203.949 160.510, 203.604 162.100, 203.197 171.975 C 202.760 182.596, 202.808 182.899, 205.329 185.420 L 207.909 188 256.780 188 L 305.651 188 308.076 185.419 C 310.302 183.049, 310.500 182.037, 310.500 173 C 310.500 163.978, 310.300 162.948, 308.089 160.594 L 305.677 158.027 273.589 157.764 L 241.500 157.500 248.414 151.776 C 252.216 148.627, 260.766 142.270, 267.414 137.650 C 303.612 112.488, 314.892 94.592, 309.586 70.744 C 307.593 61.786, 302.734 53.128, 296.409 47.265 C 284.949 36.643, 265.434 31.348, 247.477 33.988 M 358.923 35.923 C 357.315 37.531, 356 39.779, 356 40.920 C 356 42.068, 365.030 54.930, 376.238 69.747 C 431.810 143.211, 427.217 137.473, 430.704 137.810 C 432.466 137.980, 434.716 137.687, 435.704 137.157 C 436.692 136.628, 446.050 125.184, 456.500 111.725 L 475.500 87.256 476 135.096 C 476.448 177.984, 476.674 183.139, 478.179 184.896 C 481.657 188.958, 500.357 189.088, 504.366 185.078 L 506.500 182.944 506.500 110.386 L 506.500 37.827 503.599 35.331 C 500.816 32.938, 500.235 32.849, 489.426 33.168 C 479.412 33.463, 477.896 33.747, 475.828 35.716 C 474.547 36.934, 464.275 50.521, 453 65.907 C 441.725 81.294, 432.275 93.899, 432 93.918 C 431.725 93.937, 425.875 86.454, 419 77.289 C 392.993 42.622, 386.802 34.875, 384.362 33.947 C 382.991 33.426, 377.364 33, 371.858 33 C 362.126 33, 361.765 33.082, 358.923 35.923 M 359.201 136.028 C 358.004 137.143, 356.767 139.081, 356.452 140.335 C 356.137 141.589, 356.019 151.690, 356.190 162.782 C 356.583 188.319, 356.077 187.500, 371.444 187.500 C 381.063 187.500, 382.026 187.320, 384.417 185.076 L 387 182.651 387 160.780 L 387 138.909 384.545 136.455 C 382.255 134.164, 381.397 134, 371.734 134 C 362.712 134, 361.097 134.261, 359.201 136.028" stroke="none" fill="#000000" fill-rule="evenodd"/>
</svg>