<svg xmlns="http://www.w3.org/2000/svg" width="189" height="192" viewBox="0 0 189 192" version="1.1">
	<path d="M 67.571 68.571 C 64.175 71.968, 66.688 78, 71.500 78 C 76.312 78, 78.825 71.968, 75.429 68.571 C 74.564 67.707, 72.796 67, 71.500 67 C 70.204 67, 68.436 67.707, 67.571 68.571 M 89.571 68.571 C 86.175 71.968, 88.688 78, 93.500 78 C 98.312 78, 100.825 71.968, 97.429 68.571 C 96.564 67.707, 94.796 67, 93.500 67 C 92.204 67, 90.436 67.707, 89.571 68.571 M 111.571 68.571 C 108.175 71.968, 110.688 78, 115.500 78 C 120.312 78, 122.825 71.968, 119.429 68.571 C 118.564 67.707, 116.796 67, 115.500 67 C 114.204 67, 112.436 67.707, 111.571 68.571 M 34.571 90.571 C 33.707 91.436, 33 93.204, 33 94.500 C 33 99.322, 35.035 100, 49.500 100 C 63.965 100, 66 99.322, 66 94.500 C 66 89.678, 63.965 89, 49.500 89 C 38.690 89, 35.843 89.300, 34.571 90.571 M 78.571 90.571 C 76.556 92.587, 76.556 96.413, 78.571 98.429 C 79.843 99.700, 82.690 100, 93.500 100 C 107.965 100, 110 99.322, 110 94.500 C 110 89.678, 107.965 89, 93.500 89 C 82.690 89, 79.843 89.300, 78.571 90.571 M 122.571 90.571 C 120.556 92.587, 120.556 96.413, 122.571 98.429 C 123.843 99.700, 126.690 100, 137.500 100 C 151.965 100, 154 99.322, 154 94.500 C 154 89.678, 151.965 89, 137.500 89 C 126.690 89, 123.843 89.300, 122.571 90.571 M 67.571 112.571 C 64.175 115.968, 66.688 122, 71.500 122 C 76.312 122, 78.825 115.968, 75.429 112.571 C 74.564 111.707, 72.796 111, 71.500 111 C 70.204 111, 68.436 111.707, 67.571 112.571 M 89.571 112.571 C 86.175 115.968, 88.688 122, 93.500 122 C 98.312 122, 100.825 115.968, 97.429 112.571 C 96.564 111.707, 94.796 111, 93.500 111 C 92.204 111, 90.436 111.707, 89.571 112.571 M 111.571 112.571 C 108.175 115.968, 110.688 122, 115.500 122 C 120.312 122, 122.825 115.968, 119.429 112.571 C 118.564 111.707, 116.796 111, 115.500 111 C 114.204 111, 112.436 111.707, 111.571 112.571" stroke="none" fill="#34495e" fill-rule="evenodd" stroke-width="0.5"/>
</svg>